HIERARCHY
ROOT Hips
{
	OFFSET -14.64140 90.27770 -84.91600
	CHANNELS 6 Xposition Yposition Zposition Zrotation Xrotation Yrotation
	JOINT Spine
	{
		OFFSET 0.00000 13.20850 -1.60436
		CHANNELS 3 Zrotation Xrotation Yrotation
		JOINT Spine1
		{
			OFFSET 0.00000 8.61716 0.00000
			CHANNELS 3 Zrotation Xrotation Yrotation
			JOINT Spine2
			{
				OFFSET 0.00000 8.61717 0.00000
				CHANNELS 3 Zrotation Xrotation Yrotation
				JOINT Spine3
				{
					OFFSET 0.00000 8.61717 0.00000
					CHANNELS 3 Zrotation Xrotation Yrotation
					JOINT Neck
					{
						OFFSET 0.00000 11.07920 1.10792
						CHANNELS 3 Zrotation Xrotation Yrotation
						JOINT Neck1
						{
							OFFSET 0.00000 7.08032 0.00000
							CHANNELS 3 Zrotation Xrotation Yrotation
							JOINT Head
							{
								OFFSET 0.00000 7.08031 0.00000
								CHANNELS 3 Zrotation Xrotation Yrotation
								End site
								{
									OFFSET 0.00000 0.00000 0.00000
								}
							}
						}
					}
					JOINT RightShoulder
					{
						OFFSET -0.01000 7.91373 5.19711
						CHANNELS 3 Zrotation Xrotation Yrotation
						JOINT RightArm
						{
							OFFSET -18.41580 0.00000 0.00000
							CHANNELS 3 Zrotation Xrotation Yrotation
							JOINT RightForeArm
							{
								OFFSET -29.11090 0.00000 0.00000
								CHANNELS 3 Zrotation Xrotation Yrotation
								JOINT RightHand
								{
									OFFSET -24.65040 0.00000 0.00000
									CHANNELS 3 Zrotation Xrotation Yrotation
									JOINT RightHandThumb1
									{
										OFFSET -5.35114 -0.85590 3.97906
										CHANNELS 3 Zrotation Xrotation Yrotation
										JOINT RightHandThumb2
										{
											OFFSET -4.52789 0.00000 0.00000
											CHANNELS 3 Zrotation Xrotation Yrotation
											JOINT RightHandThumb3
											{
												OFFSET -2.46976 0.00000 0.00000
												CHANNELS 3 Zrotation Xrotation Yrotation
												End site
												{
													OFFSET 0.00000 0.00000 0.00000
												}
											}
										}
									}
									JOINT RightHandIndex1
									{
										OFFSET -14.26970 0.00000 2.88139
										CHANNELS 3 Zrotation Xrotation Yrotation
										JOINT RightHandIndex2
										{
											OFFSET -5.48836 0.00000 0.00000
											CHANNELS 3 Zrotation Xrotation Yrotation
											JOINT RightHandIndex3
											{
												OFFSET -3.01859 0.00000 0.00000
												CHANNELS 3 Zrotation Xrotation Yrotation
												End site
												{
													OFFSET 0.00000 0.00000 0.00000
												}
											}
										}
									}
									JOINT RightHandMiddle1
									{
										OFFSET -14.26970 0.00000 -0.09147
										CHANNELS 3 Zrotation Xrotation Yrotation
										JOINT RightHandMiddle2
										{
											OFFSET -6.17441 0.00000 0.00000
											CHANNELS 3 Zrotation Xrotation Yrotation
											JOINT RightHandMiddle3
											{
												OFFSET -3.56743 0.00000 0.00000
												CHANNELS 3 Zrotation Xrotation Yrotation
												End site
												{
													OFFSET 0.00000 0.00000 0.00000
												}
											}
										}
									}
									JOINT RightHandRing1
									{
										OFFSET -12.69180 0.00000 -3.06433
										CHANNELS 3 Zrotation Xrotation Yrotation
										JOINT RightHandRing2
										{
											OFFSET -5.62556 0.00000 0.00000
											CHANNELS 3 Zrotation Xrotation Yrotation
											JOINT RightHandRing3
											{
												OFFSET -3.56744 0.00000 0.00000
												CHANNELS 3 Zrotation Xrotation Yrotation
												End site
												{
													OFFSET 0.00000 0.00000 0.00000
												}
											}
										}
									}
									JOINT RightHandPinky1
									{
										OFFSET -11.11390 0.00000 -6.03719
										CHANNELS 3 Zrotation Xrotation Yrotation
										JOINT RightHandPinky2
										{
											OFFSET -4.52789 0.00000 0.00000
											CHANNELS 3 Zrotation Xrotation Yrotation
											JOINT RightHandPinky3
											{
												OFFSET -2.46976 0.00000 0.00000
												CHANNELS 3 Zrotation Xrotation Yrotation
												End site
												{
													OFFSET 0.00000 0.00000 0.00000
												}
											}
										}
									}
								}
							}
						}
					}
					JOINT LeftShoulder
					{
						OFFSET 0.01000 7.91373 5.19711
						CHANNELS 3 Zrotation Xrotation Yrotation
						JOINT LeftArm
						{
							OFFSET 18.41580 0.00000 0.00000
							CHANNELS 3 Zrotation Xrotation Yrotation
							JOINT LeftForeArm
							{
								OFFSET 29.11090 0.00000 0.00000
								CHANNELS 3 Zrotation Xrotation Yrotation
								JOINT LeftHand
								{
									OFFSET 24.65040 0.00000 0.00000
									CHANNELS 3 Zrotation Xrotation Yrotation
									JOINT LeftHandThumb1
									{
										OFFSET 5.35114 -0.85590 3.97906
										CHANNELS 3 Zrotation Xrotation Yrotation
										JOINT LeftHandThumb2
										{
											OFFSET 4.52789 0.00000 0.00000
											CHANNELS 3 Zrotation Xrotation Yrotation
											JOINT LeftHandThumb3
											{
												OFFSET 2.46977 0.00000 0.00000
												CHANNELS 3 Zrotation Xrotation Yrotation
												End site
												{
													OFFSET 0.00000 0.00000 0.00000
												}
											}
										}
									}
									JOINT LeftHandIndex1
									{
										OFFSET 14.26970 0.00000 2.88139
										CHANNELS 3 Zrotation Xrotation Yrotation
										JOINT LeftHandIndex2
										{
											OFFSET 5.48836 0.00000 0.00000
											CHANNELS 3 Zrotation Xrotation Yrotation
											JOINT LeftHandIndex3
											{
												OFFSET 3.01859 0.00000 0.00000
												CHANNELS 3 Zrotation Xrotation Yrotation
												End site
												{
													OFFSET 0.00000 0.00000 0.00000
												}
											}
										}
									}
									JOINT LeftHandMiddle1
									{
										OFFSET 14.26970 0.00000 -0.09147
										CHANNELS 3 Zrotation Xrotation Yrotation
										JOINT LeftHandMiddle2
										{
											OFFSET 6.17440 0.00000 0.00000
											CHANNELS 3 Zrotation Xrotation Yrotation
											JOINT LeftHandMiddle3
											{
												OFFSET 3.56744 0.00000 0.00000
												CHANNELS 3 Zrotation Xrotation Yrotation
												End site
												{
													OFFSET 0.00000 0.00000 0.00000
												}
											}
										}
									}
									JOINT LeftHandRing1
									{
										OFFSET 12.69180 0.00000 -3.06433
										CHANNELS 3 Zrotation Xrotation Yrotation
										JOINT LeftHandRing2
										{
											OFFSET 5.62556 0.00000 0.00000
											CHANNELS 3 Zrotation Xrotation Yrotation
											JOINT LeftHandRing3
											{
												OFFSET 3.56744 0.00000 0.00000
												CHANNELS 3 Zrotation Xrotation Yrotation
												End site
												{
													OFFSET 0.00000 0.00000 0.00000
												}
											}
										}
									}
									JOINT LeftHandPinky1
									{
										OFFSET 11.11390 0.00000 -6.03719
										CHANNELS 3 Zrotation Xrotation Yrotation
										JOINT LeftHandPinky2
										{
											OFFSET 4.52789 0.00000 0.00000
											CHANNELS 3 Zrotation Xrotation Yrotation
											JOINT LeftHandPinky3
											{
												OFFSET 2.46976 0.00000 0.00000
												CHANNELS 3 Zrotation Xrotation Yrotation
												End site
												{
													OFFSET 0.00000 0.00000 0.00000
												}
											}
										}
									}
								}
							}
						}
					}
					JOINT pCube4
					{
						OFFSET 0.00000 10.91090 1.10792
						CHANNELS 3 Zrotation Xrotation Yrotation
						End site
						{
							OFFSET 0.00000 0.00000 0.00000
						}
					}
				}
			}
		}
	}
	JOINT RightUpLeg
	{
		OFFSET -9.98441 0.00000 0.00000
		CHANNELS 3 Zrotation Xrotation Yrotation
		JOINT RightLeg
		{
			OFFSET 0.00000 -42.11790 0.00000
			CHANNELS 3 Zrotation Xrotation Yrotation
			JOINT RightFoot
			{
				OFFSET 0.00000 -45.00020 -0.00001
				CHANNELS 3 Zrotation Xrotation Yrotation
				JOINT RightForeFoot
				{
					OFFSET 0.00000 -3.74820 0.00000
					CHANNELS 3 Zrotation Xrotation Yrotation
					JOINT RightToeBase
					{
						OFFSET 0.00000 0.06325 14.43120
						CHANNELS 3 Zrotation Xrotation Yrotation
						End site
						{
							OFFSET 0.00000 0.00000 0.00000
						}
					}
				}
			}
		}
	}
	JOINT LeftUpLeg
	{
		OFFSET 9.98441 0.00000 0.00000
		CHANNELS 3 Zrotation Xrotation Yrotation
		JOINT LeftLeg
		{
			OFFSET 0.00000 -42.11800 0.00000
			CHANNELS 3 Zrotation Xrotation Yrotation
			JOINT LeftFoot
			{
				OFFSET 0.00000 -45.00070 0.00000
				CHANNELS 3 Zrotation Xrotation Yrotation
				JOINT LeftForeFoot
				{
					OFFSET 0.00000 -3.74824 0.00000
					CHANNELS 3 Zrotation Xrotation Yrotation
					JOINT LeftToeBase
					{
						OFFSET 0.00000 0.06325 14.43110
						CHANNELS 3 Zrotation Xrotation Yrotation
						End site
						{
							OFFSET 0.00000 0.00000 0.00000
						}
					}
				}
			}
		}
	}
}
MOTION
Frames: 4
Frame Time: 0.050000
0.013488049847553963 0.009083375099591654 -0.04733939670358134 -0.022408828292901327 -0.035927936180713216 0.0031963248008582052 5.9305977521886435 5.13718499417836 -2.227225008206549 -0.6834071346002409 3.6227415311402886 0.38495079959075595 -0.3305132071636109 -0.9252437453370311 -0.21885811526439158 -1.2922634831709432 -0.4851664278942152 -0.33343626143149185 -1.3919662178045542 13.178216613187208 2.5244572587028644 0.22689611040452362 -1.1188779812967224 8.04020680589871 -0.43547273334677167 -18.301324963508705 0.6726518632673317 -10.84366902300217 3.887305561764896 -18.307299986444225 85.12748699405635 -8.323824707585626 -0.21929887225383113 28.231440957181068 6.135004040725947 82.64886264786774 9.160321786417231 -0.46501893662286614 -4.589964435714199 4.481430864424774 -0.11866053688031165 -1.6242468171650881 -0.03512121668535489 0.03441257256797473 -56.262259678693376 -0.03293610632844018 -0.025953653115371136 -56.24190491125483 -38.75405474910519 -0.004079919959478504 -0.006279228007804558 0.02246131998845642 -0.027874650618708762 -0.036005750122652086 0.03872059174281701 -0.0008871045237430961 -0.0099726367857592 -36.671687069316235 0.009119163395325801 0.01345412447653049 0.021079003924853044 -0.04633738338098503 -0.038223699022304845 -0.03879083282467579 -0.019325212774341394 -0.025428066996830426 -19.722406584622778 -0.026264773984443924 0.00863140432359818 0.018115442937621008 0.008497600438077856 -0.04450427200868899 0.030456118021296302 0.011846287603373138 -0.012066221276084655 24.09200841251329 -0.015381341014105418 0.012105171753178288 28.905853720770644 0.018234771709599217 -0.0308795650320345 28.83248930510944 -0.014133346004222044 -0.036882178013365394 13.654228046351571 3.080819941640804 14.812950749875206 -77.55551577633224 12.81777924127489 -19.869297881238325 -28.282237584005603 15.695370383427102 -70.2996245619013 -24.597309638202415 -4.073118003758027 3.3848620981954123 -0.4945052798692623 0.04505470958744652 -8.075702259574191 -0.03528416943419532 -0.042877444829574334 44.5200880875949 -0.02543926123807432 -0.03537037073774901 44.580025560849116 12.480409440145927 0.0051661264395056194 0.047699617045741174 0.009036748954189253 -0.005906865174855427 0.03784419790424768 0.03031179678663758 -0.00472966632642829 -0.023827784606259905 11.058033247837447 -0.039966354931986046 -0.0094957040864898 0.019020534182169393 0.023814615496896015 0.01925179637621822 -0.03749239136034393 0.03077822754504619 -0.03411187644278846 4.751426512283894 0.011016873045958917 0.0016320241599897382 0.04015603849217575 -0.022056135629673825 -0.021653569083751257 0.03022185093605528 -0.04835741136255244 0.021114588329917347 -5.568791262128117 0.01822874467302366 0.002450630536819211 -6.730591160930735 0.011878227000656476 -0.020462377854262293 -6.687183524052812 -0.0028060728236442775 -0.014911907941707414 -0.0020807896898850414 0.01459734379025515 -0.0024508672969505503 8.02452359960592 3.510148778541003 -19.19543766990681 0.006259047070806767 10.38515256185777 0.029910645380130666 -5.650718938290864 -15.654971392999318 3.1757475811892983 0.0482880332636107 -0.028429466203343978 0.008890277868873878 -0.008009581354872545 4.721626508489053 -0.031104724430864362 12.499899757539588 -8.249617930769142 6.894861502550575 -0.008551523352149593 46.35610700685035 -0.02640421841012821 -4.284852120448535 -14.698883024454272 -3.803201364689542 -0.005521659354721859 0.01331617104892754 -0.003897399266302759 -0.02918479179570715 -10.791647031589314 -0.022061837356409052 
-0.009495023742225998 -0.0032294652946605776 0.03417858484587569 0.04472791509012622 -0.036056467737457916 -0.022195892456172376 5.805894949832123 5.187054346340954 -2.244028520626419 -0.7756477459426363 3.599273663509478 0.3307751412674991 -0.30130299907548336 -0.8934815208764302 -0.34681123015847537 -1.1980356817984803 -0.47374076073003757 -0.30323431759747915 -1.3553128754096109 12.879756241851936 2.2223121316233363 0.23684932065367942 -1.2147476948161837 7.366938972762862 -0.3326419904849999 -18.334647000314742 0.6208365741588749 -10.49930070934362 3.8422612634927193 -18.228915146647946 85.21603408042141 -7.866534588333924 -1.0162336034380843 27.793085348058764 6.937485005912364 81.58390228202714 8.872633635347405 -0.445430990561721 -4.430394741519641 4.567300791549513 -0.08082606770080669 -1.6086604380568805 -0.01318308916792944 -0.013366004417697275 -56.223156892774796 -0.0034311492283255708 0.005200670196851213 -56.22691741074039 -38.76197546360557 0.027175990985338225 0.014405569730555026 -0.0056337105330338194 -0.009007019527867805 -0.04043992656820073 0.037814416227317973 -0.03972009478504749 0.040363311125628076 -36.722824617160555 0.02385117726384834 -0.002927477016048988 0.03273672529729736 0.012244631982517715 0.021902690243437127 0.025056239645816807 0.04611925319270696 0.013795978158527086 -19.71928977738278 0.016130519043817522 0.01071569085386427 -0.0066615152071274044 0.002599763668710443 -0.011401949659532217 0.03624879773344766 0.024780956816371876 0.0057885816517242745 24.04754044798966 0.006351179426633141 0.04142463580268763 28.87106438304813 0.03840330044564742 0.03872087173353611 28.899537987616576 0.01041773741480796 0.003213197554405554 13.274518803849569 3.0321688381375185 14.67125434104503 -77.14619040944099 14.010422576370088 -19.364615816401074 -26.16383077663388 16.6438039240276 -68.37189504656176 -24.70144237262111 -4.1475103435126774 3.523735890922509 -0.4472057802153973 0.11171658909970611 -8.094148310401833 0.016321519817841364 -0.008569942357470502 44.555348468562066 0.008344823218648987 0.045992872794222206 44.55358602399183 12.413488992405947 0.00569870893238095 -0.0115002498367766 0.025991876437709522 0.0003494141667366918 -0.027784419431048573 -0.0437817542181413 0.02818252121773612 -0.040919798566886094 11.06509307526509 0.03957034776556208 0.007482478583800556 -0.004867754519534621 0.014283969817133238 0.018526068078337246 -0.030689751294969165 -0.017875010787463615 -0.0011104460825292798 4.761438148961585 -0.012266516610455707 -0.016623958148268905 0.02140421112584713 0.019681754855281716 -0.009274483257167121 -0.04941970223862834 -0.007060353797011229 0.0009796652329382676 -5.613729255983282 0.031515454886300656 -0.014848012756832332 -6.7046769754506155 0.03729096861164801 0.04976055294412293 -6.730737768875677 0.012727825072135716 -0.010822171021545453 0.040208175897859744 -0.021562133943563957 0.008735448529362644 8.074968236164553 3.4826114486857884 -19.203157149748122 0.003515774277637833 10.395432435239085 -0.03137537170708064 -5.668763106934908 -15.625912466086668 3.197773976652184 -0.036594342170564884 0.005627005715650508 0.02899630101852958 0.02274154713007045 4.713451325795918 -0.035774232801894824 12.472612500791481 -8.229760912396348 6.853834587721367 0.009569099681279678 46.38832523221837 0.013097626249078436 -4.3426998973951845 -14.736084966670296 -3.82985845963943 0.026324874478994276 -0.02329587118095414 0.016210655069956306 0.020533925669327546 -10.699549441743645 0.0424541513714042 
-0.027511790771055412 -0.023209567917565663 0.031069754105493636 0.026373931431740882 0.007142915618594169 -0.023795765200675875 5.450634605144057 5.2714457493125 -2.1668777485021335 -0.7818051068690257 3.593319830002716 0.32508151880400726 -0.36019443196193873 -0.81133349204326 -0.26393983163609425 -1.1175050212760325 -0.4776785438375681 -0.3869494441370796 -1.2776074734579945 12.673833730724635 1.9716448078269888 0.19583363038898066 -1.2800085714845713 6.570990864197728 -0.23318159189432613 -18.432636415995862 0.5318436214112612 -10.191086701457008 3.7661423393961577 -18.015514419643804 84.99909993123255 -7.1055971739357515 -1.5862880173376903 26.579800625551915 8.24525024258501 80.25368841093655 8.560217435172007 -0.4674972790470939 -4.345227686157823 4.49345973988899 -0.12396355159751231 -1.6007938188698738 0.01358586515273906 -0.0071439716913109085 -56.23891080906186 0.03314322695892957 -0.0005945380643834289 -56.19400516570719 -38.79126380223182 0.041766283264424435 0.014030304311878582 0.027226962763657873 0.027689639394430195 -0.021941969561106063 0.019452838777708256 -0.0056105476049574205 0.004352278906281771 -36.68454311102881 -0.024953484600031935 -0.007304889458006923 0.040822546745517954 -0.001023844760183342 -0.02226845406167099 -0.029716533754163103 0.0024196779335445206 -0.02418193288886365 -19.721515028607147 -0.0072783330489321245 0.02047016894148936 -0.008334814519407267 -0.008938554140715944 -0.024438671660628485 -0.03683634611331175 -0.0418811507135074 -0.021859810964260023 24.06037122255563 -0.029021304604444808 0.030836882437462694 28.861427330212514 -0.04923949556361442 -0.01219699908207407 28.86774726205332 0.039906362787774576 -0.032225959212585566 12.737527689164155 3.003471469686064 14.490439592889317 -76.66509786309915 14.947037322974461 -18.461670735852945 -22.531447335674457 17.596106814278443 -65.09172513233037 -24.621908445732526 -3.9238247378659397 3.603064456696267 -0.4471043969248352 0.11274373708002494 -8.096277533857473 -0.04039241231200065 -0.0035271705730589697 44.60847204079429 -0.020760107484414942 -0.046185083617171434 44.52930390761546 12.428558329373214 0.02164436786365038 0.03821326545975565 -0.025323644469085756 -0.02327455858395223 -0.019968152101261103 0.04328745371164605 -0.004039103787867768 -0.040765178454683075 11.058622413414332 -0.016246928381749803 0.03145395634762675 -0.013205204635772964 0.029876880717909244 0.0302641456715785 0.009564375905862718 -0.045287541426516406 -0.010532586270734806 4.758160860632478 0.006829729826194034 0.048340078179166704 -0.037375826766215606 -0.0013480180374354671 -0.00833320171335143 0.005227995227272063 -0.04265183538267093 -0.04229230002566642 -5.601781323528491 0.020665054163783288 0.015527218932917466 -6.711780479882403 -0.030527737605733837 0.0018463100030825092 -6.723005621948073 -0.012232946460810383 -0.031061426155629793 0.012346706081122394 -0.012271662067106854 -0.025075565423059623 8.0271372815352 3.4727967109612266 -19.202146108482495 0.02282912188205139 10.36259930141514 0.04625318884491786 -5.662611964574455 -15.67700496356064 3.2190079261538127 -0.007356489865549562 0.021181327515816074 0.04520987209259672 0.023030268934109088 4.745045204892232 0.04412152503366421 12.429754406296762 -8.19939448240316 6.887393496697333 -0.042143914193104606 46.39071971332339 -0.022435994594179397 -4.34783374100436 -14.719509079370887 -3.8049172309671264 0.017636102166724107 -0.027293897369262396 0.032358516604106644 -0.02054599731685766 -10.717288611360749 0.018713025952718725 
0.016354762445649283 -0.02833844967282111 0.0009764370706320466 0.030055453045804453 -0.015072183383127652 -0.021889963688428236 5.11437139951203 5.344268602112872 -2.1618388622105904 -0.7410961173853233 3.633609323712307 0.3694545086624414 -0.4326992208801664 -0.8283377220834842 -0.33195687948523195 -1.083102713978594 -0.40207953293564774 -0.33835190891069644 -1.2159019580543333 12.424184081806626 1.7544562993731228 0.25376584460700036 -1.316781913558262 5.9434930190728545 -0.1514403648627847 -18.44828173366263 0.4318364755834636 -9.850291961107736 3.738320682409048 -17.928946568077006 84.76306104796811 -5.873297558735946 -2.3511585933105548 23.975115277942958 9.880809659088532 77.9254317665705 8.465187134927104 -0.3887730165951466 -3.9892232732798463 4.512465595900513 -0.13527400918496213 -1.5878139727485694 0.016503029983463716 0.027102099705561745 -56.236141102910246 -0.016358510549624936 -0.026241397833699182 -56.27134585228582 -38.734962425443975 -0.02544691341894737 0.011049260928816544 0.0036491381512195387 -0.003436216468158185 -0.0017837509470105604 -0.02131340500872772 -0.019094529961373962 -0.027088756836578805 -36.71592890790637 0.04268287318570282 0.012042511581642676 0.0066747365324116206 -0.013079459451141305 0.012740493560707701 -0.038705188186745884 -0.04050700302751965 -0.006335479314383828 -19.797624258182033 -0.03671608873083654 0.031204198435308698 -0.0029653002756519797 -0.01583936628413454 -0.01874296770617405 0.009879556993816183 -0.003000595275526134 -0.04463300092020885 24.06863843367598 0.04191111235854615 -0.025278687802759197 28.877741272227404 0.02779485210797617 0.024482496383804155 28.851980337376503 -0.03768977660054303 -0.016605026674236648 12.286645981001707 2.880348379444073 14.352885512625416 -75.77222343109561 15.791572899695902 -17.718625263807485 -18.315198095271047 18.696446377190863 -61.5477836963023 -24.669708750019556 -3.7022126171798284 3.762225595245034 -0.4807645349134729 0.03799421601221879 -8.095723511500402 0.003047410604664042 0.020630254620808593 44.611077730490415 0.021151766422760045 -0.0004268729540213657 44.52094184251266 12.477210249402834 0.00016923941342069415 0.02999252759194705 0.012865213525217894 0.010286628453473877 0.008290424370447315 0.014780609341793828 0.012499463758625949 -0.003404677813787799 11.072198365890317 -0.025948518866157233 0.043422857536061746 -0.008970835774071486 0.04236647225028691 -0.0010475721836252171 0.006974077268810632 0.002361251820619581 0.04308304999140021 4.777005078891931 -0.012664272235259953 0.015166469069544747 -0.02981978262254782 0.03682413590776637 0.009175366460585392 0.03805367822414875 -0.006543051053361374 0.04605978992155922 -5.605134022646072 0.04511978716780445 0.01927596358973789 -6.727857153542501 0.000663983007315834 -0.009616421571256013 -6.69586196607109 -0.011313504795428407 0.01627566168220163 0.001797421677023769 0.04126164625883687 0.041266028599509515 8.060660731348479 3.4955815811102906 -19.1716824107516 -0.025011640565884806 10.367649477939844 0.03308847955553599 -5.661759564238 -15.6257166346907 3.2206468079356045 0.023023482015788823 -0.039259719468520395 0.032847141839565414 0.012039936483354247 4.688805674966893 0.008730330221679794 12.448427167604066 -8.228303023931542 6.853452171697864 -0.036420892618808154 46.40425023787987 0.03148278593976316 -4.2946281739994125 -14.786362564423989 -3.812986998797097 -0.015434152337130934 0.025994244289826985 -0.029936802813946808 0.00273010177068849 -10.739128963036855 0.04410083410040897 
